<?xml version="1.0" encoding="utf-8"?>
<svg version="1.1" xmlns="http://www.w3.org/2000/svg" xmlns:xlink="http://www.w3.org/1999/xlink" xmlns:sketchjs="https://sketch.io/dtd/" width="600" height="600" viewBox="0 0 600 600">
<path style="fill: #87cc0f; mix-blend-mode: source-over; fill-opacity: 1; vector-effect: non-scaling-stroke;" sketchjs:tool="rectangle" d="M28.143 0 L187.857 0 Q199.514 0 207.757 7.322 216 14.645 216 25 L216 25 Q216 35.355 207.757 42.678 199.514 50 187.857 50 L28.143 50 Q16.486 50 8.243 42.678 0 35.355 0 25 L0 25 Q0 14.645 8.243 7.322 16.486 0 28.143 0 z" transform="matrix(1.9434855582745658,0,0,2.025749340241132,33.98287062300501,184.57948621612744)"/>
<path style="fill: #87cc0f; mix-blend-mode: source-over; fill-opacity: 1; vector-effect: non-scaling-stroke;" sketchjs:tool="rectangle" d="M28.105 0 L187.895 0 Q199.537 0 207.768 7.322 216 14.645 216 25 L216 25 Q216 35.355 207.768 42.678 199.537 50 187.895 50 L28.105 50 Q16.463 50 8.232 42.678 0 35.355 0 25 L0 25 Q0 14.645 8.232 7.322 16.463 0 28.105 0 z" transform="matrix(1.9461141783760696,0,0,2.025749340241132,33.707070883285375,314.8163246137232)"/>
<path style="fill: #87cc0f; mix-blend-mode: source-over; fill-opacity: 1; vector-effect: non-scaling-stroke;" sketchjs:tool="rectangle" d="M28.146 0 L187.854 0 Q199.512 0 207.756 7.322 216 14.645 216 25 L216 25 Q216 35.355 207.756 42.678 199.512 50 187.854 50 L28.146 50 Q16.488 50 8.244 42.678 0 35.355 0 25 L0 25 Q0 14.645 8.244 7.322 16.488 0 28.146 0 z" transform="matrix(1.9432659368255314,0,0,2.025749340241132,150.16428253918858,54.34264781853193)"/>
<path style="fill: #87cc0f; mix-blend-mode: source-over; fill-opacity: 1; vector-effect: non-scaling-stroke;" sketchjs:tool="rectangle" d="M28.122 0 L187.878 0 Q199.526 0 207.763 7.322 216 14.645 216 25 L216 25 Q216 35.355 207.763 42.678 199.526 50 187.878 50 L28.122 50 Q16.474 50 8.237 42.678 0 35.355 0 25 L0 25 Q0 14.645 8.237 7.322 16.474 0 28.122 0 z" transform="matrix(1.9449097617939612,0,0,2.025749340241132,149.80921634600804,446.3958108298505)"/>
</svg>